<svg width="50" height="50" viewBox="0 0 50 50" fill="none" xmlns="http://www.w3.org/2000/svg">
<path d="M24 32C25.775 31.9998 27.4989 31.4056 28.897 30.312L33.293 34.708L34.707 33.294L30.311 28.898C31.4051 27.4997 31.9997 25.7755 32 24C32 19.589 28.411 16 24 16C19.589 16 16 19.589 16 24C16 28.411 19.589 32 24 32ZM24 18C27.309 18 30 20.691 30 24C30 27.309 27.309 30 24 30C20.691 30 18 27.309 18 24C18 20.691 20.691 18 24 18Z" fill="#FCB5B5"/>
<path d="M25.4121 22.586C25.7911 22.966 26.0001 23.468 26.0001 24H28.0001C28.0008 23.4744 27.8974 22.9539 27.6959 22.4685C27.4944 21.9832 27.1988 21.5425 26.8261 21.172C25.3121 19.66 22.6871 19.66 21.1741 21.172L22.5861 22.588C23.3461 21.83 24.6561 21.832 25.4121 22.586Z" fill="#FCB5B5"/>
</svg>
